# xmcd
#
# Track frame offsets:
#	150
#	11766
#	22395
#	33259
#	46119
#	58968
#	69577
#	82403
#	93351
#	104165
#	114652
#	125640
#	137836
#	149260
#
# Disc length: 2146 seconds
#
# Revision: 1
# Processed by: cddbd v1.5.1PL0 Copyright (c) Steve Scherf et al.
# Submitted via: audiograbber 1.83.01
#
DISCID=d808600e
DTITLE=Charlie Monroe - Golden Country
DYEAR=1900
DGENRE=
TTITLE0=Who's Calling You Sweetheart Tonight
TTITLE1=Rubber Neck Blues
TTITLE2=There's No Depression In Heaven
TTITLE3=Mother's Not Dead, She's Only Sleeping
TTITLE4=I'm Coming Back But I Don't Know When
TTITLE5=Down In The Willow Garden
TTITLE6=Bringing In The Georgia Mail
TTITLE7=When The Angels Carry Me Home
TTITLE8=Campin' In Canaan's Land
TTITLE9=Shenandoah Waltz
TTITLE10=Walking With You In My Dreams
TTITLE11=My Savior's Train
TTITLE12='Neath A Cold Grey Tomb Of Stone
TTITLE13=That Wild Black Engine
EXTD=
EXTT0=
EXTT1=
EXTT2=
EXTT3=
EXTT4=
EXTT5=
EXTT6=
EXTT7=
EXTT8=
EXTT9=
EXTT10=
EXTT11=
EXTT12=
EXTT13=
PLAYORDER=
